<?xml version="1.0" encoding="utf-8"?>
<!-- Generator: Adobe Illustrator 16.0.4, SVG Export Plug-In . SVG Version: 6.00 Build 0)  -->
<!DOCTYPE svg PUBLIC "-//W3C//DTD SVG 1.1//EN" "http://www.w3.org/Graphics/SVG/1.1/DTD/svg11.dtd">
<svg version="1.1" id="Layer_1" xmlns="http://www.w3.org/2000/svg" xmlns:xlink="http://www.w3.org/1999/xlink" x="0px" y="0px"
	 width="60px" height="60px" viewBox="0 0 60 60" enable-background="new 0 0 60 60" xml:space="preserve">
<g id="Icon_LinkedIn">
	<path fill="#4F88C7" d="M54.632,0.444H4.308C1.815,0.444,0,2.257,0,4.752v50.324c0,2.262,2.04,4.302,4.308,4.302h50.324
		c2.488,0,4.308-1.807,4.308-4.302V4.752C58.939,2.257,56.899,0.444,54.632,0.444z M18.135,50.313H9.067V23.108h9.067V50.313z
		 M13.603,19.482c-2.947,0-5.442-2.489-5.442-5.438c0-2.944,2.495-5.438,5.442-5.438c2.946,0,5.438,2.495,5.438,5.438
		C19.041,16.994,16.549,19.482,13.603,19.482z M49.869,50.313h-9.07v-13.6c0-3.626-0.903-7.251-4.529-7.251
		s-4.532,3.625-4.532,7.251v13.6h-9.068V23.108h9.068v3.177h0.451c1.137-2.268,4.081-4.08,7.479-4.08
		c8.388,0,10.201,5.438,10.201,12.241V50.313z"/>
</g>
</svg>
