<svg xmlns="http://www.w3.org/2000/svg" xmlns:xlink="http://www.w3.org/1999/xlink" version="1.1" id="Layer_1" x="0" y="0" width="106.96" height="87.36" viewBox="0 0 152.8 124.8" enable-background="new 0 0 152.828 124.781" xml:space="preserve">
  <path fill="transparent" d="M68.4 81.8c-0.6-0.4-0.9-1.1-0.9-1.8v-4.1c-1.9 2.6-4.4 4.6-7.4 6 -0.3 0.1-0.5 0.2-0.8 0.3h9.9C68.9 82.1 68.7 82 68.4 81.8z"/>
  <path fill="transparent" d="M2.3 80.7c-0.8-0.8-1.5-1.6-1.9-2.6v4.1h4.3C3.8 81.8 3.1 81.3 2.3 80.7z"/>
  <path fill="transparent" d="M62.1 67.2c2.5-2.9 3.8-6.6 3.8-11.1 0-4.4-1.3-8-3.8-10.9 -2.5-2.9-5.7-4.3-9.6-4.3 -3.8 0-7 1.4-9.5 4.3s-3.8 6.5-3.8 10.9c0 4.5 1.2 8.2 3.8 11.1 2.5 2.9 5.7 4.3 9.6 4.3S59.6 70 62.1 67.2z"/>
  <path fill="transparent" d="M83 82.2h12.3c-1.8-0.7-3.4-1.7-4.8-2.9 -1.3-1.1-2.3-2.4-3.1-3.8C87.3 75.7 87.3 75.8 87.3 76c0 2.3-0.6 4-1.7 5C85 81.6 84.1 82 83 82.2z"/>
  <path fill="transparent" d="M110 72.2c2.7 0 5.2-0.4 7.6-1.2 2.4-0.8 4.7-2 7-3.6v-9c-2-0.4-3.7-0.7-5.4-1 -1.6-0.2-3.2-0.3-4.6-0.3 -4.3 0-7.7 0.7-10.1 2.2 -2.4 1.4-3.7 3.4-3.7 6 0 2.3 0.8 4 2.3 5.2C104.8 71.6 107.1 72.2 110 72.2z"/>
  <path fill="transparent" d="M0.4 0v70.3c0.5-1 1.1-1.8 1.9-2.6 1.9-1.7 4.2-2.5 7.2-2.5 3 0 5.4 0.8 7.2 2.5 1.8 1.7 2.8 3.8 2.8 6.5 0 2.6-0.9 4.8-2.8 6.5 -0.7 0.6-1.5 1.2-2.4 1.6h25.6c-3.4-1.3-6.5-3.3-9.2-6.1 -5.2-5.2-7.7-11.7-7.7-19.5 0-8.1 2.6-14.9 7.8-20.2 5.2-5.3 11.8-8 19.9-8 2.8 0 5.5 0.5 8.1 1.4 2.6 0.9 5 2.2 7.2 3.9V18.8h-7.8c-2.7 0-4.6-0.5-5.7-1.6 -1.1-1-1.7-2.7-1.7-5 0-2.3 0.6-4 1.7-5 1.1-1 3-1.5 5.7-1.5h18.2c1.3 0 2.2 0.3 2.7 0.8 0.5 0.5 0.7 1.6 0.7 3v60h1c2 0 3.5 0.5 4.6 1.5 -0.3-1.5-0.5-3-0.5-4.7 0-5.9 2.3-10.4 7-13.7 4.6-3.2 11.2-4.9 19.6-4.9 1.9 0 3.9 0.1 6 0.3 2.1 0.2 4.5 0.5 7.1 0.9v-1.1c0-3.5-0.8-6.2-2.5-8 -1.7-1.8-4.2-2.8-7.5-2.8 -2.6 0-5.9 1-9.9 2.9 -4 1.9-6.9 2.9-8.8 2.9 -1.8 0-3.3-0.5-4.5-1.6 -1.1-1.1-1.7-2.5-1.7-4.2 0-3.2 2.3-5.7 6.9-7.5 4.6-1.9 10.9-2.8 18.9-2.8 8.3 0 14.3 1.6 17.9 4.8 3.6 3.2 5.4 8.6 5.4 16.3v21.7h0.9c2.1 0 3.7 0.6 4.8 1.7s1.7 2.7 1.7 4.8c0 2.3-0.6 3.9-1.7 4.9 -0.7 0.6-1.6 1-2.7 1.2h11.1V0H0.4z"/>
  <path fill="transparent" d="M129 81.4c-1-0.7-1.7-2.1-2.4-4 -3.2 2.1-6.6 3.7-10.2 4.9h14.3C130.1 82 129.5 81.8 129 81.4z"/>
  <path class="logo-text" fill="transparent" d="M21.8 123.1c-0.3 0-0.6-0.1-0.7-0.3 -0.1-0.2-0.2-0.5-0.2-1v-2c-1 1.2-2.2 2.2-3.7 2.9 -1.5 0.7-3.1 1-4.9 1 -3.1 0-5.8-1.1-7.9-3.3 -2.1-2.2-3.2-5-3.2-8.3 0-3.4 1.1-6.3 3.4-8.6 2.3-2.3 5.1-3.4 8.4-3.4 1.7 0 3.2 0.3 4.6 0.9 1.4 0.6 2.5 1.5 3.5 2.7v-9.5h-1.3c-1.4 0-2.4-0.1-2.8-0.4 -0.4-0.3-0.6-0.7-0.6-1.4 0-0.6 0.2-1 0.5-1.3 0.3-0.3 0.8-0.4 1.5-0.4h5.1c0.5 0 0.9 0.1 1.1 0.2 0.2 0.2 0.3 0.4 0.3 0.8v28.1h1.1c0.8 0 1.4 0.1 1.8 0.4 0.4 0.3 0.5 0.7 0.5 1.3 0 0.6-0.2 1-0.5 1.3 -0.3 0.3-0.7 0.5-1.3 0.5H21.8zM5.5 112c0 2.3 0.7 4.2 2.2 5.6 1.5 1.5 3.4 2.2 5.6 2.2 2.3 0 4.2-0.8 5.7-2.3 1.5-1.5 2.2-3.4 2.2-5.8 0-2.3-0.7-4.2-2.2-5.7 -1.5-1.5-3.4-2.2-5.7-2.2 -2.3 0-4.2 0.8-5.7 2.3C6.2 107.5 5.5 109.5 5.5 112z"/>
  <path class="logo-text" fill="transparent" d="M45.7 120c-1.4 1.2-2.8 2.2-4.4 2.8s-3.2 1-4.9 1c-2.5 0-4.5-0.7-6-2.1 -1.5-1.4-2.3-3.2-2.3-5.4 0-2.6 1-4.7 3-6.1 2-1.4 4.9-2.2 8.5-2.2 1 0 1.9 0.1 2.9 0.2 1 0.1 2 0.3 3 0.6v-0.2c0-1.9-0.5-3.3-1.4-4.2 -0.9-0.9-2.3-1.4-4.3-1.4 -1.3 0-2.7 0.3-4.3 1s-2.6 1-3.2 1c-0.5 0-0.9-0.2-1.2-0.6 -0.3-0.4-0.5-0.9-0.5-1.5 0-1 0.9-1.8 2.8-2.5 1.8-0.7 4.2-1 7-1 2.9 0 5.1 0.7 6.6 2.2 1.5 1.5 2.2 3.7 2.2 6.6v11.3h1.2c1.2 0 2 0.1 2.4 0.4s0.6 0.7 0.6 1.3c0 0.6-0.2 1-0.5 1.3 -0.3 0.3-0.8 0.4-1.5 0.4h-3.9c-0.5 0-0.8-0.1-1.1-0.4 -0.3-0.3-0.5-0.7-0.6-1.2L45.7 120zM45.5 112.1c-0.9-0.3-1.8-0.5-2.7-0.7 -0.9-0.1-1.7-0.2-2.6-0.2 -2.6 0-4.6 0.4-6.1 1.3 -1.5 0.9-2.2 2-2.2 3.5 0 1.1 0.5 2.1 1.4 2.8 0.9 0.7 2.1 1.1 3.5 1.1 2.1 0 4.1-0.6 5.9-1.7s2.7-2.3 2.7-3.4V112.1z"/>
  <path class="logo-text" fill="transparent" d="M67.7 119.6h8c0.6 0 1.1 0.1 1.4 0.4 0.3 0.3 0.5 0.7 0.5 1.3 0 0.7-0.1 1.2-0.4 1.4 -0.3 0.3-0.8 0.4-1.6 0.4H56.2c-0.7 0-1.2-0.1-1.5-0.4 -0.3-0.3-0.5-0.7-0.5-1.3 0-0.6 0.2-1 0.5-1.3 0.3-0.3 0.9-0.4 1.6-0.4h7.6v-16h-4.9c-0.7 0-1.2-0.2-1.6-0.5 -0.4-0.3-0.5-0.7-0.5-1.3 0-0.6 0.2-1 0.5-1.3 0.3-0.3 0.8-0.4 1.5-0.4h7.3c0.4 0 0.8 0.1 1.1 0.3 0.3 0.2 0.4 0.4 0.4 0.7V119.6zM63.1 93c0-1.8 0.2-2.9 0.5-3.4 0.3-0.5 1-0.7 2.1-0.7 1 0 1.7 0.2 2 0.6 0.3 0.4 0.5 1.3 0.5 2.8 0 1.4-0.2 2.3-0.5 2.7 -0.3 0.3-1 0.5-2.1 0.5 -1.1 0-1.8-0.2-2.1-0.5C63.2 94.6 63.1 93.9 63.1 93z"/>
  <path class="logo-text" fill="transparent" d="M79.1 121.3v-4.4c0-0.7 0.1-1.3 0.4-1.6 0.3-0.3 0.7-0.5 1.3-0.5 0.7 0 1.2 0.5 1.6 1.4 0.3 0.6 0.5 1 0.7 1.3 0.7 0.9 1.7 1.6 3.1 2.2 1.4 0.5 2.9 0.8 4.5 0.8 1.8 0 3.2-0.4 4.2-1.1 1.1-0.7 1.6-1.7 1.6-2.8 0-1.2-0.4-2-1.3-2.5s-2.3-0.7-4.4-0.7h-1.4c-3.4 0-6-0.6-7.7-1.8 -1.8-1.2-2.7-2.9-2.7-5.1 0-2.2 0.9-3.9 2.6-5.1 1.7-1.2 4.2-1.8 7.3-1.8 1.3 0 2.6 0.2 3.9 0.5 1.3 0.4 2 0.5 2.1 0.5 0.2 0 0.5-0.2 1-0.5 0.5-0.3 1-0.5 1.5-0.5 0.6 0 1 0.2 1.3 0.6 0.3 0.4 0.4 1 0.4 1.9v2.9c0 0.9-0.1 1.5-0.4 1.9 -0.3 0.4-0.7 0.6-1.3 0.6 -0.5 0-1.1-0.4-1.8-1.3 -0.5-0.6-0.9-1-1.3-1.3 -0.9-0.8-1.8-1.4-2.8-1.8s-2.2-0.5-3.5-0.5c-1.6 0-2.8 0.3-3.8 1s-1.4 1.6-1.4 2.6c0 1 0.5 1.8 1.5 2.2 1 0.4 3.1 0.7 6.3 0.8 3.5 0.1 6 0.7 7.6 1.8 1.6 1.1 2.4 2.9 2.4 5.2 0 2.2-0.9 4-2.6 5.4 -1.8 1.3-4.1 2-7.1 2 -0.9 0-2-0.1-3.2-0.3 -1.2-0.2-2.6-0.5-4.4-0.9 -0.6 0.4-1.1 0.7-1.5 0.9 -0.4 0.2-0.8 0.3-1 0.3 -0.6 0-1-0.2-1.3-0.6C79.2 122.7 79.1 122.1 79.1 121.3z"/>
  <path class="logo-text" fill="transparent" d="M104.9 119.6v-25.5h-0.5c-1.1 0-1.9-0.1-2.3-0.4 -0.4-0.3-0.6-0.7-0.6-1.4 0-0.6 0.2-1 0.5-1.3 0.3-0.3 0.8-0.4 1.5-0.4h3.8c0.4 0 0.8 0.1 1 0.3 0.2 0.2 0.4 0.4 0.4 0.7v11.3c1.2-1.1 2.4-2 3.6-2.5s2.4-0.8 3.7-0.8c2.5 0 4.5 0.8 5.9 2.3 1.4 1.6 2.2 3.7 2.2 6.5v11.3h1.2c0.8 0 1.4 0.1 1.8 0.4 0.4 0.3 0.6 0.7 0.6 1.3s-0.2 1-0.5 1.3c-0.3 0.3-0.8 0.4-1.5 0.4h-6.6c-0.8 0-1.3-0.1-1.6-0.4s-0.4-0.7-0.4-1.4c0-0.7 0.2-1.1 0.5-1.4 0.3-0.2 1-0.4 1.9-0.4h0.9v-10.4c0-1.9-0.4-3.4-1.3-4.4 -0.9-1-2.2-1.5-3.8-1.5 -1.7 0-3.2 0.6-4.5 1.7 -1.3 1.1-1.9 2.6-1.9 4.3v10.4h0.9c1 0 1.7 0.1 2 0.4 0.3 0.2 0.5 0.7 0.5 1.3 0 0.7-0.1 1.2-0.4 1.4 -0.3 0.3-0.8 0.4-1.6 0.4h-6.6c-0.6 0-1.1-0.1-1.5-0.4 -0.3-0.3-0.5-0.7-0.5-1.3 0-0.7 0.2-1.1 0.6-1.4 0.4-0.2 1.1-0.4 2.3-0.4H104.9z"/>
  <path class="logo-text" fill="transparent" d="M152.5 111.7c0 3.6-1.2 6.5-3.6 8.7 -2.4 2.3-5.6 3.4-9.4 3.4 -3.9 0-7-1.1-9.4-3.4 -2.4-2.3-3.6-5.2-3.6-8.7 0-3.6 1.2-6.5 3.6-8.7 2.4-2.2 5.6-3.4 9.4-3.4s7 1.1 9.4 3.4C151.2 105.2 152.5 108.1 152.5 111.7zM139.4 120.2c2.6 0 4.7-0.8 6.3-2.4 1.6-1.6 2.5-3.7 2.5-6.2s-0.8-4.6-2.5-6.2c-1.6-1.6-3.7-2.4-6.3-2.4s-4.6 0.8-6.3 2.4c-1.6 1.6-2.5 3.7-2.5 6.2 0 2.5 0.8 4.6 2.4 6.2C134.7 119.4 136.8 120.2 139.4 120.2z"/>
</svg>