<?xml version="1.0" encoding="UTF-8"?>
<!-- Created with Inkscape (http://www.inkscape.org/) -->
<svg width="320" height="4680" version="1.1" viewBox="0 0 84.667 1238.3" xmlns="http://www.w3.org/2000/svg" xmlns:cc="http://creativecommons.org/ns#" xmlns:dc="http://purl.org/dc/elements/1.1/" xmlns:rdf="http://www.w3.org/1999/02/22-rdf-syntax-ns#">
 <metadata>
  <rdf:RDF>
   <cc:Work rdf:about="">
    <dc:format>image/svg+xml</dc:format>
    <dc:type rdf:resource="http://purl.org/dc/dcmitype/StillImage"/>
    <dc:title/>
   </cc:Work>
  </rdf:RDF>
 </metadata>
 <g transform="translate(0,285.75)">
  <path d="m63.055 923.07-16.557 0.3274 3.9756 7.4368z" fill="#333"/>
  <path d="m49.958 930.04 8.8867-5.2853-11.599 0.1871z" fill="#666"/>
  <path d="m61.261 907.73s-0.42095 2.9934-1.8241 3.7885c-5.0046 3.1805-10.524 3.6015-13.657 6.1272-1.6838 1.4499-1.7072 4.0458-1.5669 4.2796 1.0754 0.9309 0.74742 2.8406 3.1476 3.8519 0.88867-0.4209 2.2578-1.8812 2.161-3.8351 7.5627 0.7344 16.399-3.3784 19.831-6.9624" fill="#1a1a1a" stroke="#000" stroke-width=".26458px"/>
  <path transform="matrix(.26458 0 0 .26458 0 -285.75)" d="m171.36 4550c-4.6896 5.5943-4.7306 13.658-4.252 14.455 4.0645 3.5184 2.8249 10.736 11.896 14.559 3.3588-1.5908 8.5336-7.1093 8.168-14.494l-4.2051 1.2988-0.70703-4.5976-4.7715 0.1777-0.35352-6.7168-4.5977 0.1758z" fill="#ececec" stroke="#1a1a1a" stroke-width="1px"/>
  <g transform="translate(3.7247e-8 -105.83)">
   <path d="m2.9524 1015 33.957-0.094 12.816 23.901-34.705-1.45z" fill="#333"/>
   <path d="m2.9524 1015 1.0758-1.4499 34.19-0.1403-1.3096 1.4967z" fill="#4d4d4d"/>
   <path d="m38.219 1013.4 12.254 23.292 12.582-7.7642 0.0935 1.9177-13.424 7.9513-12.816-23.901z" fill="#1a1a1a"/>
   <path d="m17.467 1023.3 9.5281 0.066 2.1136 5.6225-9.2004-0.1323z" fill="#ff0"/>
   <g transform="matrix(.44007 0 .16067 .38714 -176.23 647.82)" stroke-width=".26458" aria-label="DEV">
    <path d="m89.358 981.34h1.3123c1.8521 0 2.921-1.4393 2.921-3.9158 0-2.4659-1.0689-3.8629-2.9633-3.8629h-1.27zm0.98425-0.81492v-6.1489h0.41275c1.2065 0 1.8203 1.0689 1.8203 3.048 0 1.9685-0.61383 3.1009-1.8203 3.1009z"/>
    <path d="m94.903 981.34h3.81v-0.83608h-2.8258v-2.8258h2.2754v-0.83609h-2.2754v-2.4342h2.7305v-0.84667h-3.7148z"/>
    <path d="m101.32 981.34h1.2277l1.7462-7.7788h-0.98425l-0.8255 4.2228c-0.17991 0.92075-0.30691 1.6828-0.508 2.6035h-0.0529c-0.1905-0.92075-0.32809-1.6828-0.508-2.6035l-0.8255-4.2228h-1.016z"/>
   </g>
  </g>
 </g>
 <g transform="translate(0,285.75)">
  <path d="m63.055 827.82-16.557 0.3274 3.9756 7.4368z" fill="#333"/>
  <path d="m49.958 834.79 8.8867-5.2853-11.599 0.1871z" fill="#666"/>
  <path d="m60.983 813.19s-0.05387 3.0224-1.3499 3.9822c-4.5808 3.7654-10.008 4.8543-12.811 7.7423-1.495 1.6439-1.2026 4.2234-1.0349 4.4384 1.1806 0.79324 1.0873 2.7286 3.5926 3.4406 0.8309-0.52583 2.0123-2.1417 1.6787-4.0694 7.5959-0.19059 15.866-5.3472 18.838-9.322" fill="#1a1a1a" stroke="#000" stroke-width=".26458px"/>
  <path d="m46.468 825.37c-1.0852 1.6254-0.83384 3.7807-0.6811 3.9765 1.1806 0.79325 1.0872 2.7287 3.5925 3.4406 0.8309-0.52581 2.0121-2.1414 1.6785-4.069l-1.9477 0.33282 0.04703-1.0754h-1.6371l0.2806-1.3565h-1.45z" fill="#e6e6e6" stroke="#1a1a1a" stroke-width=".26458px"/>
  <g transform="translate(3.7247e-8 -201.08)">
   <path d="m2.9524 1015 33.957-0.094 12.816 23.901-34.705-1.45z" fill="#333"/>
   <path d="m2.9524 1015 1.0758-1.4499 34.19-0.1403-1.3096 1.4967z" fill="#4d4d4d"/>
   <path d="m38.219 1013.4 12.254 23.292 12.582-7.7642 0.0935 1.9177-13.424 7.9513-12.816-23.901z" fill="#1a1a1a"/>
   <path d="m17.467 1023.3 9.5281 0.066 2.1136 5.6225-9.2004-0.1323z" fill="#ff0"/>
   <g transform="matrix(.44007 0 .16067 .38714 -176.23 647.82)" stroke-width=".26458" aria-label="DEV">
    <path d="m89.358 981.34h1.3123c1.8521 0 2.921-1.4393 2.921-3.9158 0-2.4659-1.0689-3.8629-2.9633-3.8629h-1.27zm0.98425-0.81492v-6.1489h0.41275c1.2065 0 1.8203 1.0689 1.8203 3.048 0 1.9685-0.61383 3.1009-1.8203 3.1009z"/>
    <path d="m94.903 981.34h3.81v-0.83608h-2.8258v-2.8258h2.2754v-0.83609h-2.2754v-2.4342h2.7305v-0.84667h-3.7148z"/>
    <path d="m101.32 981.34h1.2277l1.7462-7.7788h-0.98425l-0.8255 4.2228c-0.17991 0.92075-0.30691 1.6828-0.508 2.6035h-0.0529c-0.1905-0.92075-0.32809-1.6828-0.508-2.6035l-0.8255-4.2228h-1.016z"/>
   </g>
  </g>
 </g>
 <g transform="translate(0,285.75)">
  <path d="m63.055 732.57-16.557 0.3274 3.9756 7.4368z" fill="#333"/>
  <path d="m49.958 739.54 8.8867-5.2853-11.599 0.1871z" fill="#666"/>
  <path d="m61.261 717.23s-0.42095 2.9934-1.8241 3.7885c-5.0046 3.1805-10.524 3.6015-13.657 6.1272-1.6838 1.4499-1.7072 4.0458-1.5669 4.2796 1.0754 0.9309 0.74742 2.8406 3.1476 3.8519 0.88867-0.4209 2.2578-1.8812 2.161-3.8351 7.5627 0.7344 16.399-3.3784 19.831-6.9624" fill="#1a1a1a" stroke="#000" stroke-width=".26458px"/>
  <path d="m45.338 727.6c-1.2408 1.4802-1.2516 3.6136-1.125 3.8246 1.0754 0.93091 0.74742 2.8407 3.1476 3.852 0.88867-0.4209 2.2579-1.881 2.1611-3.8349l-1.1126 0.34364-0.18707-1.2164-1.2625 0.047-0.09353-1.7772-1.2165 0.0465z" fill="#ececec" stroke="#1a1a1a" stroke-width=".26458px"/>
  <g transform="translate(3.7247e-8 -296.33)">
   <path d="m2.9524 1015 33.957-0.094 12.816 23.901-34.705-1.45z" fill="#333"/>
   <path d="m2.9524 1015 1.0758-1.4499 34.19-0.1403-1.3096 1.4967z" fill="#4d4d4d"/>
   <path d="m38.219 1013.4 12.254 23.292 12.582-7.7642 0.0935 1.9177-13.424 7.9513-12.816-23.901z" fill="#1a1a1a"/>
   <path d="m17.467 1023.3 9.5281 0.066 2.1136 5.6225-9.2004-0.1323z" fill="#ff0"/>
   <g transform="matrix(.44007 0 .16067 .38714 -176.23 647.82)" stroke-width=".26458" aria-label="DEV">
    <path d="m89.358 981.34h1.3123c1.8521 0 2.921-1.4393 2.921-3.9158 0-2.4659-1.0689-3.8629-2.9633-3.8629h-1.27zm0.98425-0.81492v-6.1489h0.41275c1.2065 0 1.8203 1.0689 1.8203 3.048 0 1.9685-0.61383 3.1009-1.8203 3.1009z"/>
    <path d="m94.903 981.34h3.81v-0.83608h-2.8258v-2.8258h2.2754v-0.83609h-2.2754v-2.4342h2.7305v-0.84667h-3.7148z"/>
    <path d="m101.32 981.34h1.2277l1.7462-7.7788h-0.98425l-0.8255 4.2228c-0.17991 0.92075-0.30691 1.6828-0.508 2.6035h-0.0529c-0.1905-0.92075-0.32809-1.6828-0.508-2.6035l-0.8255-4.2228h-1.016z"/>
   </g>
  </g>
 </g>
 <g transform="translate(0,285.75)">
  <path d="m63.055 637.32-16.557 0.3274 3.9756 7.4368z" fill="#333"/>
  <path d="m49.958 644.29 8.8867-5.2853-11.599 0.1871z" fill="#666"/>
  <path d="m60.983 622.69s-0.05387 3.0224-1.3499 3.9822c-4.5808 3.7654-10.008 4.8543-12.811 7.7423-1.495 1.6439-1.2026 4.2234-1.0349 4.4384 1.1806 0.79324 1.0873 2.7286 3.5926 3.4406 0.8309-0.52583 2.0123-2.1417 1.6787-4.0694 7.5959-0.19059 15.866-5.3472 18.838-9.322" fill="#1a1a1a" stroke="#000" stroke-width=".26458px"/>
  <path d="m46.468 634.87c-1.0852 1.6254-0.83384 3.7807-0.6811 3.9765 1.1806 0.79325 1.0872 2.7287 3.5925 3.4406 0.8309-0.52581 2.0121-2.1414 1.6785-4.069l-1.9477 0.33282 0.04703-1.0754h-1.6371l0.2806-1.3565h-1.45z" fill="#e6e6e6" stroke="#1a1a1a" stroke-width=".26458px"/>
  <g transform="translate(3.7247e-8 -391.58)">
   <path d="m2.9524 1015 33.957-0.094 12.816 23.901-34.705-1.45z" fill="#333"/>
   <path d="m2.9524 1015 1.0758-1.4499 34.19-0.1403-1.3096 1.4967z" fill="#4d4d4d"/>
   <path d="m38.219 1013.4 12.254 23.292 12.582-7.7642 0.0935 1.9177-13.424 7.9513-12.816-23.901z" fill="#1a1a1a"/>
   <path d="m17.467 1023.3 9.5281 0.066 2.1136 5.6225-9.2004-0.1323z" fill="#ff0"/>
   <g transform="matrix(.44007 0 .16067 .38714 -176.23 647.82)" stroke-width=".26458" aria-label="DEV">
    <path d="m89.358 981.34h1.3123c1.8521 0 2.921-1.4393 2.921-3.9158 0-2.4659-1.0689-3.8629-2.9633-3.8629h-1.27zm0.98425-0.81492v-6.1489h0.41275c1.2065 0 1.8203 1.0689 1.8203 3.048 0 1.9685-0.61383 3.1009-1.8203 3.1009z"/>
    <path d="m94.903 981.34h3.81v-0.83608h-2.8258v-2.8258h2.2754v-0.83609h-2.2754v-2.4342h2.7305v-0.84667h-3.7148z"/>
    <path d="m101.32 981.34h1.2277l1.7462-7.7788h-0.98425l-0.8255 4.2228c-0.17991 0.92075-0.30691 1.6828-0.508 2.6035h-0.0529c-0.1905-0.92075-0.32809-1.6828-0.508-2.6035l-0.8255-4.2228h-1.016z"/>
   </g>
  </g>
 </g>
 <g transform="translate(0,285.75)">
  <path d="m63.055 542.07-16.557 0.3274 3.9756 7.4368z" fill="#333"/>
  <path d="m49.958 549.04 8.8867-5.2853-11.599 0.1871z" fill="#666"/>
  <path d="m61.261 526.73s-0.42095 2.9934-1.8241 3.7885c-5.0046 3.1805-10.524 3.6015-13.657 6.1272-1.6838 1.4499-1.7072 4.0458-1.5669 4.2796 1.0754 0.9309 0.74742 2.8406 3.1476 3.8519 0.88867-0.4209 2.2578-1.8812 2.161-3.8351 7.5627 0.7344 16.399-3.3784 19.831-6.9624" fill="#1a1a1a" stroke="#000" stroke-width=".26458px"/>
  <path d="m45.338 537.1c-1.2408 1.4802-1.2516 3.6136-1.125 3.8246 1.0754 0.93091 0.74742 2.8407 3.1476 3.852 0.88867-0.4209 2.2579-1.881 2.1611-3.8349l-1.1126 0.34364-0.18707-1.2164-1.2625 0.047-0.09353-1.7772-1.2165 0.0465z" fill="#ececec" stroke="#1a1a1a" stroke-width=".26458px"/>
  <g transform="translate(3.7247e-8 -486.83)">
   <path d="m2.9524 1015 33.957-0.094 12.816 23.901-34.705-1.45z" fill="#333"/>
   <path d="m2.9524 1015 1.0758-1.4499 34.19-0.1403-1.3096 1.4967z" fill="#4d4d4d"/>
   <path d="m38.219 1013.4 12.254 23.292 12.582-7.7642 0.0935 1.9177-13.424 7.9513-12.816-23.901z" fill="#1a1a1a"/>
   <path d="m17.467 1023.3 9.5281 0.066 2.1136 5.6225-9.2004-0.1323z" fill="#ff0"/>
   <g transform="matrix(.44007 0 .16067 .38714 -176.23 647.82)" stroke-width=".26458" aria-label="DEV">
    <path d="m89.358 981.34h1.3123c1.8521 0 2.921-1.4393 2.921-3.9158 0-2.4659-1.0689-3.8629-2.9633-3.8629h-1.27zm0.98425-0.81492v-6.1489h0.41275c1.2065 0 1.8203 1.0689 1.8203 3.048 0 1.9685-0.61383 3.1009-1.8203 3.1009z"/>
    <path d="m94.903 981.34h3.81v-0.83608h-2.8258v-2.8258h2.2754v-0.83609h-2.2754v-2.4342h2.7305v-0.84667h-3.7148z"/>
    <path d="m101.32 981.34h1.2277l1.7462-7.7788h-0.98425l-0.8255 4.2228c-0.17991 0.92075-0.30691 1.6828-0.508 2.6035h-0.0529c-0.1905-0.92075-0.32809-1.6828-0.508-2.6035l-0.8255-4.2228h-1.016z"/>
   </g>
  </g>
 </g>
 <g transform="translate(0,285.75)">
  <path d="m63.055 446.82-16.557 0.3274 3.9756 7.4368z" fill="#333"/>
  <path d="m49.958 453.79 8.8867-5.2853-11.599 0.1871z" fill="#666"/>
  <path d="m60.983 432.19s-0.05387 3.0224-1.3499 3.9822c-4.5808 3.7654-10.008 4.8543-12.811 7.7423-1.495 1.6439-1.2026 4.2234-1.0349 4.4384 1.1806 0.79324 1.0873 2.7286 3.5926 3.4406 0.8309-0.52583 2.0123-2.1417 1.6787-4.0694 7.5959-0.19059 15.866-5.3472 18.838-9.322" fill="#1a1a1a" stroke="#000" stroke-width=".26458px"/>
  <path d="m46.468 444.37c-1.0852 1.6254-0.83384 3.7807-0.6811 3.9765 1.1806 0.79325 1.0872 2.7287 3.5925 3.4406 0.8309-0.52581 2.0121-2.1414 1.6785-4.069l-1.9477 0.33282 0.04703-1.0754h-1.6371l0.2806-1.3565h-1.45z" fill="#e6e6e6" stroke="#1a1a1a" stroke-width=".26458px"/>
  <g transform="translate(3.7247e-8 -582.08)">
   <path d="m2.9524 1015 33.957-0.094 12.816 23.901-34.705-1.45z" fill="#333"/>
   <path d="m2.9524 1015 1.0758-1.4499 34.19-0.1403-1.3096 1.4967z" fill="#4d4d4d"/>
   <path d="m38.219 1013.4 12.254 23.292 12.582-7.7642 0.0935 1.9177-13.424 7.9513-12.816-23.901z" fill="#1a1a1a"/>
   <path d="m17.467 1023.3 9.5281 0.066 2.1136 5.6225-9.2004-0.1323z" fill="#ff0"/>
   <g transform="matrix(.44007 0 .16067 .38714 -176.23 647.82)" stroke-width=".26458" aria-label="DEV">
    <path d="m89.358 981.34h1.3123c1.8521 0 2.921-1.4393 2.921-3.9158 0-2.4659-1.0689-3.8629-2.9633-3.8629h-1.27zm0.98425-0.81492v-6.1489h0.41275c1.2065 0 1.8203 1.0689 1.8203 3.048 0 1.9685-0.61383 3.1009-1.8203 3.1009z"/>
    <path d="m94.903 981.34h3.81v-0.83608h-2.8258v-2.8258h2.2754v-0.83609h-2.2754v-2.4342h2.7305v-0.84667h-3.7148z"/>
    <path d="m101.32 981.34h1.2277l1.7462-7.7788h-0.98425l-0.8255 4.2228c-0.17991 0.92075-0.30691 1.6828-0.508 2.6035h-0.0529c-0.1905-0.92075-0.32809-1.6828-0.508-2.6035l-0.8255-4.2228h-1.016z"/>
   </g>
  </g>
 </g>
 <g transform="translate(0,285.75)">
  <path d="m63.055 351.57-16.557 0.3274 3.9756 7.4368z" fill="#333"/>
  <path d="m49.958 358.54 8.8867-5.2853-11.599 0.1871z" fill="#666"/>
  <path d="m61.261 336.23s-0.42095 2.9934-1.8241 3.7885c-5.0046 3.1805-10.524 3.6015-13.657 6.1272-1.6838 1.4499-1.7072 4.0458-1.5669 4.2796 1.0754 0.9309 0.74742 2.8406 3.1476 3.8519 0.88867-0.4209 2.2578-1.8812 2.161-3.8351 7.5627 0.7344 16.399-3.3784 19.831-6.9624" fill="#1a1a1a" stroke="#000" stroke-width=".26458px"/>
  <g fill="#f2f2f2">
   <path transform="matrix(.80961 .58696 -.5596 .82876 0 0)" d="m207.87 254.4c0.0339 0.92182 0.0132 2.0997-1.0972 2.1379-0.56499 0-1.0198-0.51798-1.0198-1.1614v-0.92169c0-0.64342 0.45628-1.1732 1.0159-1.2715 0.49813-0.0875 1.2504-0.19475 1.2437 0.47727" stroke="#1a1a1a" stroke-width=".26466"/>
   <path d="m32.015 332.05c1.1089-0.81079 1.8521-1.3229 2.6458-0.79375 1.0583 1.3229-1.0583 1.0583-1.8521 2.9104-0.26458 0.52916 0.79375 2.1167 0.79375 2.1167 1.791 2.7205-5.0271 1.5875-6.35 0.79376 0 0-1.8521-1.3229-1.5875-2.6458 0.26458-1.3229 0-1.0583 0-1.0583" stroke="#000" stroke-width=".26458px"/>
   <path d="m28.31 330.73h2.9104l0.26458 1.8521-3.175 0.79376-0.26458-0.26458 0.26458-2.3813"/>
   <path d="m28.31 330.99s0.26458-1.0583 0.79375-1.3229c0.52917-0.26458 1.3229-0.52917 2.3812 0.52917 1.0583 1.3229 0.52917 2.1167-0.26458 2.3812-0.79375 0-1.0583-0.79375-1.5875-1.5875" stroke="#000" stroke-width=".26458px"/>
   <rect transform="matrix(.98708 .16021 -.11676 .99316 0 0)" x="64.988" y="321.93" width="2.0416" height="3.3694" rx="1.0208" ry="1.2061" stroke="#1a1a1a" stroke-width=".26471"/>
  </g>
  <path d="m45.338 346.6c-1.2408 1.4802-1.2516 3.6136-1.125 3.8246 1.0754 0.93091 0.74742 2.8407 3.1476 3.852 0.88867-0.4209 2.2579-1.881 2.1611-3.8349l-1.1126 0.34364-0.18707-1.2164-1.2625 0.047-0.09353-1.7772-1.2165 0.0465z" fill="#ececec" stroke="#1a1a1a" stroke-width=".26458px"/>
  <g transform="translate(-2.5852e-6 -677.33)">
   <path d="m2.9524 1015 33.957-0.094 12.816 23.901-34.705-1.45z" fill="#333"/>
   <path d="m2.9524 1015 1.0758-1.4499 34.19-0.1403-1.3096 1.4967z" fill="#4d4d4d"/>
   <path d="m38.219 1013.4 12.254 23.292 12.582-7.7642 0.0935 1.9177-13.424 7.9513-12.816-23.901z" fill="#1a1a1a"/>
   <path d="m17.467 1023.3 9.5281 0.066 2.1136 5.6225-9.2004-0.1323z" fill="#ff0"/>
   <g transform="matrix(.44007 0 .16067 .38714 -176.23 647.82)" stroke-width=".26458" aria-label="DEV">
    <path d="m89.358 981.34h1.3123c1.8521 0 2.921-1.4393 2.921-3.9158 0-2.4659-1.0689-3.8629-2.9633-3.8629h-1.27zm0.98425-0.81492v-6.1489h0.41275c1.2065 0 1.8203 1.0689 1.8203 3.048 0 1.9685-0.61383 3.1009-1.8203 3.1009z"/>
    <path d="m94.903 981.34h3.81v-0.83608h-2.8258v-2.8258h2.2754v-0.83609h-2.2754v-2.4342h2.7305v-0.84667h-3.7148z"/>
    <path d="m101.32 981.34h1.2277l1.7462-7.7788h-0.98425l-0.8255 4.2228c-0.17991 0.92075-0.30691 1.6828-0.508 2.6035h-0.0529c-0.1905-0.92075-0.32809-1.6828-0.508-2.6035l-0.8255-4.2228h-1.016z"/>
   </g>
  </g>
 </g>
 <g transform="translate(0,285.75)">
  <path d="m63.055 256.32-16.557 0.3274 3.9756 7.4368z" fill="#333"/>
  <path d="m49.958 263.29 8.8867-5.2853-11.599 0.1871z" fill="#666"/>
  <path d="m60.983 241.69s-0.05387 3.0224-1.3499 3.9822c-4.5808 3.7654-10.008 4.8543-12.811 7.7423-1.495 1.6439-1.2026 4.2234-1.0349 4.4384 1.1806 0.79324 1.0873 2.7286 3.5926 3.4406 0.8309-0.52583 2.0123-2.1417 1.6787-4.0694 7.5959-0.19059 15.866-5.3472 18.838-9.322" fill="#1a1a1a" stroke="#000" stroke-width=".26458px"/>
  <g transform="translate(-2.6148e-6 -94.192)" fill="#f2f2f2">
   <path transform="matrix(.80961 .58696 -.5596 .82876 0 0)" d="m207.87 254.4c0.0339 0.92182 0.0132 2.0997-1.0972 2.1379-0.56499 0-1.0198-0.51798-1.0198-1.1614v-0.92169c0-0.64342 0.45628-1.1732 1.0159-1.2715 0.49813-0.0875 1.2504-0.19475 1.2437 0.47727" stroke="#1a1a1a" stroke-width=".26466"/>
   <path d="m32.015 332.05c1.1089-0.81079 1.8521-1.3229 2.6458-0.79375 1.0583 1.3229-1.0583 1.0583-1.8521 2.9104-0.26458 0.52916 0.79375 2.1167 0.79375 2.1167 1.791 2.7205-5.0271 1.5875-6.35 0.79376 0 0-1.8521-1.3229-1.5875-2.6458 0.26458-1.3229 0-1.0583 0-1.0583" stroke="#000" stroke-width=".26458px"/>
   <path d="m28.31 330.73h2.9104l0.26458 1.8521-3.175 0.79376-0.26458-0.26458 0.26458-2.3813"/>
   <path d="m28.31 330.99s0.26458-1.0583 0.79375-1.3229c0.52917-0.26458 1.3229-0.52917 2.3812 0.52917 1.0583 1.3229 0.52917 2.1167-0.26458 2.3812-0.79375 0-1.0583-0.79375-1.5875-1.5875" stroke="#000" stroke-width=".26458px"/>
   <rect transform="matrix(.98708 .16021 -.11676 .99316 0 0)" x="64.988" y="321.93" width="2.0416" height="3.3694" rx="1.0208" ry="1.2061" stroke="#1a1a1a" stroke-width=".26471"/>
  </g>
  <path d="m46.468 253.87c-1.0852 1.6254-0.83384 3.7807-0.6811 3.9765 1.1806 0.79325 1.0872 2.7287 3.5925 3.4406 0.8309-0.52581 2.0121-2.1414 1.6785-4.069l-1.9477 0.33282 0.04703-1.0754h-1.6371l0.2806-1.3565h-1.45z" fill="#e6e6e6" stroke="#1a1a1a" stroke-width=".26458px"/>
  <g transform="translate(3.7247e-8 -772.58)">
   <path d="m2.9524 1015 33.957-0.094 12.816 23.901-34.705-1.45z" fill="#333"/>
   <path d="m2.9524 1015 1.0758-1.4499 34.19-0.1403-1.3096 1.4967z" fill="#4d4d4d"/>
   <path d="m38.219 1013.4 12.254 23.292 12.582-7.7642 0.0935 1.9177-13.424 7.9513-12.816-23.901z" fill="#1a1a1a"/>
   <path d="m17.467 1023.3 9.5281 0.066 2.1136 5.6225-9.2004-0.1323z" fill="#ff0"/>
   <g transform="matrix(.44007 0 .16067 .38714 -176.23 647.82)" stroke-width=".26458" aria-label="DEV">
    <path d="m89.358 981.34h1.3123c1.8521 0 2.921-1.4393 2.921-3.9158 0-2.4659-1.0689-3.8629-2.9633-3.8629h-1.27zm0.98425-0.81492v-6.1489h0.41275c1.2065 0 1.8203 1.0689 1.8203 3.048 0 1.9685-0.61383 3.1009-1.8203 3.1009z"/>
    <path d="m94.903 981.34h3.81v-0.83608h-2.8258v-2.8258h2.2754v-0.83609h-2.2754v-2.4342h2.7305v-0.84667h-3.7148z"/>
    <path d="m101.32 981.34h1.2277l1.7462-7.7788h-0.98425l-0.8255 4.2228c-0.17991 0.92075-0.30691 1.6828-0.508 2.6035h-0.0529c-0.1905-0.92075-0.32809-1.6828-0.508-2.6035l-0.8255-4.2228h-1.016z"/>
   </g>
  </g>
 </g>
 <g transform="translate(0,285.75)">
  <path d="m63.055 161.07-16.557 0.3274 3.9756 7.4368z" fill="#333"/>
  <path d="m49.958 168.04 8.8867-5.2853-11.599 0.1871z" fill="#666"/>
  <g stroke="#000" stroke-width=".26458px">
   <path d="m18.521 139.7s-1.0583-1.5875-1.0583-2.6458c0-0.79375 1.0583-0.79374 1.3229-0.52916 0.52917 0.26458 0.7749 1.512 1.3229 2.1167 0.26458 0.26458 0.79375 0.52917 0.79375 0.52917l0.79375 0.26458h0.52917l0.52917 7.9375s-2.8617 0.3429-4.2333-1e-5c-1.0583-0.26458-2.1167-1.0583-2.1167-1.0583" fill="#f2f2f2" opacity=".919"/>
   <path d="m20.373 143.4 0.52917 0.79375v0.79375l-0.52917 0.52917h-2.1167" fill="none" opacity=".919"/>
   <path d="m16.404 146.58s-0.52917-4.4979-0.26458-5.2917c0.41204-1.3309 2.3812-1.8521 3.9688-1.5875" fill="#ececec" opacity=".919"/>
   <path d="m17.992 141.55c1.7059-0.15404 2.6458 0 2.9104 0.52917 0.26458 0.79375-0.26458 1.0583-0.52917 1.3229-0.18708 0.18709-2.3813 0.26458-2.3813 0.26458" fill="none" opacity=".919"/>
   <path d="m19.315 140.49s0.79375 4.7625 1.8521 6.0854c1.0583 1.3229 7.1438 0 7.1438 0s0.52917-0.79375 0.52917-2.1167c0-1.3229-0.26458-5.2917-0.26458-5.2917" fill="#ff0" opacity=".919"/>
  </g>
  <ellipse transform="matrix(.9891 -.14728 .22303 .97481 0 0)" cx="-7.8465" cy="142.23" rx="4.6038" ry="1.4494" fill="#f2f2f2" stroke="#1a1a1a" stroke-width=".26498"/>
  <path d="m27.781 139.96c1e-6 0.52917-1.5875 0.79376-3.4659 1.2701-1.9297 0.48938-3.7808 0.26118-3.9424-0.21178-0.16168-0.47296 1.3918-1.1826 3.357-1.501 1.9651-0.31835 3.8897-0.0303 4.0514 0.44261z" fill="#333"/>
  <path d="m63.055 161.07-16.557 0.3274 3.9756 7.4368z" fill="#333"/>
  <path d="m49.958 168.04 8.8867-5.2853-11.599 0.1871z" fill="#666"/>
  <g stroke="#000" stroke-width=".26458px">
   <path d="m18.521 139.7s-1.0583-1.5875-1.0583-2.6458c0-0.79375 1.0583-0.79374 1.3229-0.52916 0.52917 0.26458 0.7749 1.512 1.3229 2.1167 0.26458 0.26458 0.79375 0.52917 0.79375 0.52917l0.79375 0.26458h0.52917l0.52917 7.9375s-2.8617 0.3429-4.2333-1e-5c-1.0583-0.26458-2.1167-1.0583-2.1167-1.0583" fill="#f2f2f2"/>
   <path d="m20.373 143.4 0.52917 0.79375v0.79375l-0.52917 0.52917h-2.1167" fill="none"/>
   <path d="m16.404 146.58s-0.52917-4.4979-0.26458-5.2917c0.41204-1.3309 2.3812-1.8521 3.9688-1.5875" fill="#ececec"/>
   <path d="m17.992 141.55c1.7059-0.15404 2.6458 0 2.9104 0.52917 0.26458 0.79375-0.26458 1.0583-0.52917 1.3229-0.18708 0.18709-2.3813 0.26458-2.3813 0.26458" fill="none"/>
   <path d="m19.315 140.49s0.79375 4.7625 1.8521 6.0854c1.0583 1.3229 7.1438 0 7.1438 0s0.52917-0.79375 0.52917-2.1167c0-1.3229-0.26458-5.2917-0.26458-5.2917" fill="#ff0"/>
  </g>
  <ellipse transform="matrix(.9891 -.14728 .22303 .97481 0 0)" cx="-7.8465" cy="142.23" rx="4.6038" ry="1.4494" fill="#ff0" stroke="#1a1a1a" stroke-width=".26498"/>
  <path d="m27.781 139.96c1e-6 0.52917-1.5875 0.79376-3.4659 1.2701-1.9297 0.48938-3.7808 0.26118-3.9424-0.21178-0.16168-0.47296 1.3918-1.1826 3.357-1.501 1.9651-0.31835 3.8897-0.0303 4.0514 0.44261z" fill="#333"/>
  <path d="m60.983 146.44s-0.05387 3.0224-1.3499 3.9822c-4.5808 3.7654-10.008 4.8543-12.811 7.7423-1.495 1.6439-1.2026 4.2234-1.0349 4.4384 1.1806 0.79324 1.0873 2.7286 3.5926 3.4406 0.8309-0.52583 2.0123-2.1417 1.6787-4.0694 7.5959-0.19059 15.866-5.3472 18.838-9.322" fill="#1a1a1a" stroke="#000" stroke-width=".26458px"/>
  <path d="m46.468 158.62c-1.0852 1.6254-0.83384 3.7807-0.6811 3.9765 1.1806 0.79325 1.0872 2.7287 3.5925 3.4406 0.8309-0.52581 2.0121-2.1414 1.6785-4.069l-1.9477 0.33282 0.04703-1.0754h-1.6371l0.2806-1.3565h-1.45z" fill="#e6e6e6" stroke="#1a1a1a" stroke-width=".26458px"/>
  <g transform="translate(3.7247e-8 -867.83)">
   <path d="m2.9524 1015 33.957-0.094 12.816 23.901-34.705-1.45z" fill="#333"/>
   <path d="m2.9524 1015 1.0758-1.4499 34.19-0.1403-1.3096 1.4967z" fill="#4d4d4d"/>
   <path d="m38.219 1013.4 12.254 23.292 12.582-7.7642 0.0935 1.9177-13.424 7.9513-12.816-23.901z" fill="#1a1a1a"/>
   <path d="m17.467 1023.3 9.5281 0.066 2.1136 5.6225-9.2004-0.1323z" fill="#ff0"/>
   <g transform="matrix(.44007 0 .16067 .38714 -176.23 647.82)" stroke-width=".26458" aria-label="DEV">
    <path d="m89.358 981.34h1.3123c1.8521 0 2.921-1.4393 2.921-3.9158 0-2.4659-1.0689-3.8629-2.9633-3.8629h-1.27zm0.98425-0.81492v-6.1489h0.41275c1.2065 0 1.8203 1.0689 1.8203 3.048 0 1.9685-0.61383 3.1009-1.8203 3.1009z"/>
    <path d="m94.903 981.34h3.81v-0.83608h-2.8258v-2.8258h2.2754v-0.83609h-2.2754v-2.4342h2.7305v-0.84667h-3.7148z"/>
    <path d="m101.32 981.34h1.2277l1.7462-7.7788h-0.98425l-0.8255 4.2228c-0.17991 0.92075-0.30691 1.6828-0.508 2.6035h-0.0529c-0.1905-0.92075-0.32809-1.6828-0.508-2.6035l-0.8255-4.2228h-1.016z"/>
   </g>
  </g>
 </g>
 <g transform="translate(0,285.75)">
  <path transform="rotate(-37.38)" d="m6.6769 54.939a0.19396 0.10323 0 0 1-0.19315 0.10323 0.19396 0.10323 0 0 1-0.19476-0.10238 0.19396 0.10323 0 0 1 0.19153-0.10408 0.19396 0.10323 0 0 1 0.19635 0.10151" fill="#f9f9f9"/>
  <path d="m63.055 65.821-16.557 0.3274 3.9756 7.4368z" fill="#333"/>
  <path d="m49.958 72.79 8.8867-5.2853-11.599 0.1871z" fill="#666"/>
  <path transform="rotate(-37.38)" d="m6.6769 54.939a0.19396 0.10323 0 0 1-0.19315 0.10323 0.19396 0.10323 0 0 1-0.19476-0.10238 0.19396 0.10323 0 0 1 0.19153-0.10408 0.19396 0.10323 0 0 1 0.19635 0.10151" fill="#f9f9f9"/>
  <path d="m63.055 65.821-16.557 0.3274 3.9756 7.4368z" fill="#333"/>
  <path d="m49.958 72.79 8.8867-5.2853-11.599 0.1871z" fill="#666"/>
  <g>
   <path d="m22.49 51.065s1.0583-5.8208 2.6458-7.1438c1.2898-3.2081 2.6458-4.4979 4.4979-4.7625 1.8521-0.26458 1.8521 0.79375 1.8521 1.0583 0 0.26458-1.0583 3.9688-1.0583 3.9688l-0.26458 3.4396v3.7042l-7.6729-0.26458" fill="#f2f2f2" stroke="#000" stroke-width=".26458px"/>
   <path d="m60.983 51.189s-0.05387 3.0224-1.3499 3.9822c-4.5808 3.7654-10.008 4.8543-12.811 7.7423-1.495 1.6439-1.2026 4.2234-1.0349 4.4384 1.1806 0.79324 1.0873 2.7286 3.5926 3.4406 0.8309-0.52583 2.0123-2.1417 1.6787-4.0694 7.5959-0.19059 15.866-5.3472 18.838-9.322" fill="#1a1a1a" stroke="#000" stroke-width=".26458px"/>
   <path transform="matrix(.26458 0 0 .26458 0 -285.75)" d="m175.63 1319.5c-4.1017 6.1431-3.1515 14.289-2.5742 15.029 4.4621 2.9981 4.1091 10.313 13.578 13.004 3.1404-1.9873 7.6046-8.0933 6.3438-15.379l-7.3613 1.2579 0.17774-4.0645h-6.1875l1.0606-5.127h-5.4805z" fill="#e6e6e6" stroke="#1a1a1a" stroke-width="1px"/>
   <path d="m24.348 44.99c-1.1398 2.1323-1.8588 6.0746-1.8588 6.0746l7.6729 0.26458v-3.7042l0.1049-1.3663-1.1632-0.6842-1.1576 1.2568-1.2568-1.2898-1.1576 1.3891z" fill="#1a1a1a" stroke="#000" stroke-width=".26458px"/>
   <path d="m29.369 43.656 2.3812-4.2333s2.3813-2.9104 5.2917-1.3229c2.9104 1.5875 2.1167 5.0271 2.1167 5.0271l-3.175 4.4979s-1.8521 2.3813-4.7625 0.79375c-3.2269-1.7601-1.8521-4.7625-1.8521-4.7625z" fill="#ff0" stroke="#000" stroke-width=".26458px"/>
  </g>
  <g transform="translate(3.7247e-8 -963.08)">
   <path d="m2.9524 1015 33.957-0.094 12.816 23.901-34.705-1.45z" fill="#333"/>
   <path d="m2.9524 1015 1.0758-1.4499 34.19-0.1403-1.3096 1.4967z" fill="#4d4d4d"/>
   <path d="m38.219 1013.4 12.254 23.292 12.582-7.7642 0.0935 1.9177-13.424 7.9513-12.816-23.901z" fill="#1a1a1a"/>
   <path d="m17.467 1023.3 9.5281 0.066 2.1136 5.6225-9.2004-0.1323z" fill="#ff0"/>
   <g transform="matrix(.44007 0 .16067 .38714 -176.23 647.82)" stroke-width=".26458" aria-label="DEV">
    <path d="m89.358 981.34h1.3123c1.8521 0 2.921-1.4393 2.921-3.9158 0-2.4659-1.0689-3.8629-2.9633-3.8629h-1.27zm0.98425-0.81492v-6.1489h0.41275c1.2065 0 1.8203 1.0689 1.8203 3.048 0 1.9685-0.61383 3.1009-1.8203 3.1009z"/>
    <path d="m94.903 981.34h3.81v-0.83608h-2.8258v-2.8258h2.2754v-0.83609h-2.2754v-2.4342h2.7305v-0.84667h-3.7148z"/>
    <path d="m101.32 981.34h1.2277l1.7462-7.7788h-0.98425l-0.8255 4.2228c-0.17991 0.92075-0.30691 1.6828-0.508 2.6035h-0.0529c-0.1905-0.92075-0.32809-1.6828-0.508-2.6035l-0.8255-4.2228h-1.016z"/>
   </g>
  </g>
  <g stroke="#000" stroke-width=".26458px">
   <path d="m30.427 43.656s1.8521-1.3229 3.7042 0c1.8521 1.3229 1.3229 3.175 1.3229 3.175" fill="none"/>
   <path d="m28.046 41.01s1.0583-1.0583 2.1167-0.79375c1.0583 0.26458 0.79375 1.3229 0.79375 1.3229s-0.59017 1.1219-0.82682 1.2402c-0.52917 0.26458-1.5544 0.08268-1.5544 0.08268" fill="#f2f2f2"/>
   <path d="m27.517 42.598s1.3229-1.5875 2.3812-1.0583c1.0583 0.52917 0 1.8521-0.26458 2.1167s-0.52917 1.0583-0.52917 1.0583" fill="#f2f2f2"/>
  </g>
 </g>
 <g transform="translate(0,285.75)">
  <path transform="rotate(-37.38)" d="m64.503-20.749a0.19396 0.10323 0 0 1-0.19315 0.10323 0.19396 0.10323 0 0 1-0.19476-0.10238 0.19396 0.10323 0 0 1 0.19153-0.10408 0.19396 0.10323 0 0 1 0.19635 0.10151" fill="#f9f9f9"/>
  <path d="m63.055-29.429-16.557 0.3274 3.9756 7.4368z" fill="#333"/>
  <path d="m49.958-22.46 8.8867-5.2853-11.599 0.1871z" fill="#666"/>
  <path transform="rotate(-37.38)" d="m64.503-20.749a0.19396 0.10323 0 0 1-0.19315 0.10323 0.19396 0.10323 0 0 1-0.19476-0.10238 0.19396 0.10323 0 0 1 0.19153-0.10408 0.19396 0.10323 0 0 1 0.19635 0.10151" fill="#f9f9f9"/>
  <path d="m63.055-29.429-16.557 0.3274 3.9756 7.4368z" fill="#333"/>
  <path d="m49.958-22.46 8.8867-5.2853-11.599 0.1871z" fill="#666"/>
  <g>
   <g stroke-width=".26458px">
    <path d="m22.49-44.185s1.0583-5.8208 2.6458-7.1438c1.2898-3.2081 2.6458-4.4979 4.4979-4.7625 1.8521-0.26458 1.8521 0.79375 1.8521 1.0583 0 0.26458-1.0583 3.9688-1.0583 3.9688l-0.26458 3.4396v3.7042l-7.6729-0.26458" fill="#f2f2f2" stroke="#000"/>
    <path d="m60.983-44.061s-0.05387 3.0224-1.3499 3.9822c-4.5808 3.7654-10.008 4.8543-12.811 7.7423-1.495 1.6439-1.2026 4.2234-1.0349 4.4384 1.1806 0.79324 1.0873 2.7286 3.5926 3.4406 0.8309-0.52583 2.0123-2.1417 1.6787-4.0694 7.5959-0.19059 15.866-5.3472 18.838-9.322" fill="#1a1a1a" stroke="#000"/>
    <path d="m46.468-31.875c-1.0852 1.6254-0.83384 3.7807-0.6811 3.9765 1.1806 0.79325 1.0872 2.7287 3.5925 3.4406 0.8309-0.52581 2.0121-2.1414 1.6785-4.069l-1.9477 0.33282 0.04703-1.0754h-1.6371l0.2806-1.3565h-1.45z" fill="#e6e6e6" stroke="#1a1a1a"/>
   </g>
   <path transform="matrix(.26458 0 0 .26458 0 -285.75)" d="m92.025 890.04c-4.3079 8.0591-7.0254 22.959-7.0254 22.959l29 1v-14l0.39648-5.1641-4.3965-2.5859-4.375 4.75-4.75-4.875-4.375 5.25z" fill="#1a1a1a" stroke="#000" stroke-width="1px"/>
   <path d="m29.369-51.594 2.3812-4.2333s2.3813-2.9104 5.2917-1.3229c2.9104 1.5875 2.1167 5.0271 2.1167 5.0271l-3.175 4.4979s-1.8521 2.3813-4.7625 0.79375c-3.2269-1.7601-1.8521-4.7625-1.8521-4.7625z" fill="#ff0" stroke="#000" stroke-width=".26458px"/>
  </g>
  <g transform="translate(3.7247e-8 -1058.3)">
   <path d="m2.9524 1015 33.957-0.094 12.816 23.901-34.705-1.45z" fill="#333"/>
   <path d="m2.9524 1015 1.0758-1.4499 34.19-0.1403-1.3096 1.4967z" fill="#4d4d4d"/>
   <path d="m38.219 1013.4 12.254 23.292 12.582-7.7642 0.0935 1.9177-13.424 7.9513-12.816-23.901z" fill="#1a1a1a"/>
   <path d="m17.467 1023.3 9.5281 0.066 2.1136 5.6225-9.2004-0.1323z" fill="#ff0"/>
   <g transform="matrix(.44007 0 .16067 .38714 -176.23 647.82)" stroke-width=".26458" aria-label="DEV">
    <path d="m89.358 981.34h1.3123c1.8521 0 2.921-1.4393 2.921-3.9158 0-2.4659-1.0689-3.8629-2.9633-3.8629h-1.27zm0.98425-0.81492v-6.1489h0.41275c1.2065 0 1.8203 1.0689 1.8203 3.048 0 1.9685-0.61383 3.1009-1.8203 3.1009z"/>
    <path d="m94.903 981.34h3.81v-0.83608h-2.8258v-2.8258h2.2754v-0.83609h-2.2754v-2.4342h2.7305v-0.84667h-3.7148z"/>
    <path d="m101.32 981.34h1.2277l1.7462-7.7788h-0.98425l-0.8255 4.2228c-0.17991 0.92075-0.30691 1.6828-0.508 2.6035h-0.0529c-0.1905-0.92075-0.32809-1.6828-0.508-2.6035l-0.8255-4.2228h-1.016z"/>
   </g>
  </g>
  <g stroke="#000" stroke-width=".26458px">
   <path d="m28.046-54.24s1.0583-1.0583 2.1167-0.79375c1.0583 0.26458 0.79375 1.3229 0.79375 1.3229s-0.59017 1.1219-0.82682 1.2402c-0.52917 0.26458-1.5544 0.08268-1.5544 0.08268" fill="#f2f2f2"/>
   <path d="m27.517-52.652s1.3229-1.5875 2.3812-1.0583c1.0583 0.52917 0 1.8521-0.26458 2.1167s-0.52917 1.0583-0.52917 1.0583" fill="#f2f2f2"/>
   <path d="m30.427-51.594s1.8521-1.3229 3.7042 0c1.8521 1.3229 1.3229 3.175 1.3229 3.175" fill="none"/>
  </g>
 </g>
 <g transform="translate(0,285.75)">
  <path d="m63.055-124.68-16.557 0.3274 3.9756 7.4368z" fill="#333"/>
  <path d="m49.958-117.71 8.8867-5.2853-11.599 0.1871z" fill="#666"/>
  <g stroke="#000" stroke-width=".26458px">
   <path d="m18.521-146.05s-1.0583-1.5875-1.0583-2.6458c0-0.79375 1.0583-0.79374 1.3229-0.52916 0.52917 0.26458 0.7749 1.512 1.3229 2.1167 0.26458 0.26458 0.79375 0.52917 0.79375 0.52917l0.79375 0.26458h0.52917l0.52917 7.9375s-2.8617 0.3429-4.2333-1e-5c-1.0583-0.26458-2.1167-1.0583-2.1167-1.0583" fill="#f2f2f2" opacity=".919"/>
   <path d="m20.373-142.35 0.52917 0.79375v0.79375l-0.52917 0.52917h-2.1167" fill="none" opacity=".919"/>
   <path d="m16.404-139.17s-0.52917-4.4979-0.26458-5.2917c0.41204-1.3309 2.3812-1.8521 3.9688-1.5875" fill="#ececec" opacity=".919"/>
   <path d="m17.992-144.2c1.7059-0.15404 2.6458 0 2.9104 0.52917 0.26458 0.79375-0.26458 1.0583-0.52917 1.3229-0.18708 0.18709-2.3813 0.26458-2.3813 0.26458" fill="none" opacity=".919"/>
   <path d="m19.315-145.26s0.79375 4.7625 1.8521 6.0854c1.0583 1.3229 7.1438 0 7.1438 0s0.52917-0.79375 0.52917-2.1167c0-1.3229-0.26458-5.2917-0.26458-5.2917" fill="#ff0" opacity=".919"/>
  </g>
  <ellipse transform="matrix(.9891 -.14728 .22303 .97481 0 0)" cx="56.074" cy="-141.24" rx="4.6038" ry="1.4494" fill="#f2f2f2" stroke="#1a1a1a" stroke-width=".26498"/>
  <path d="m27.781-145.79c1e-6 0.52917-1.5875 0.79376-3.4659 1.2701-1.9297 0.48937-3.7808 0.26117-3.9424-0.21179-0.16168-0.47296 1.3918-1.1826 3.357-1.501 1.9651-0.31835 3.8897-0.0303 4.0514 0.44261z" fill="#333"/>
  <path d="m63.055-124.68-16.557 0.3274 3.9756 7.4368z" fill="#333"/>
  <path d="m49.958-117.71 8.8867-5.2853-11.599 0.1871z" fill="#666"/>
  <g stroke="#000" stroke-width=".26458px">
   <path d="m18.521-146.05s-1.0583-1.5875-1.0583-2.6458c0-0.79375 1.0583-0.79374 1.3229-0.52916 0.52917 0.26458 0.7749 1.512 1.3229 2.1167 0.26458 0.26458 0.79375 0.52917 0.79375 0.52917l0.79375 0.26458h0.52917l0.52917 7.9375s-2.8617 0.3429-4.2333-1e-5c-1.0583-0.26458-2.1167-1.0583-2.1167-1.0583" fill="#f2f2f2"/>
   <path d="m20.373-142.35 0.52917 0.79375v0.79375l-0.52917 0.52917h-2.1167" fill="none"/>
   <path d="m16.404-139.17s-0.52917-4.4979-0.26458-5.2917c0.41204-1.3309 2.3812-1.8521 3.9688-1.5875" fill="#ececec"/>
   <path d="m17.992-144.2c1.7059-0.15404 2.6458 0 2.9104 0.52917 0.26458 0.79375-0.26458 1.0583-0.52917 1.3229-0.18708 0.18709-2.3813 0.26458-2.3813 0.26458" fill="none"/>
   <path d="m19.315-145.26s0.79375 4.7625 1.8521 6.0854c1.0583 1.3229 7.1438 0 7.1438 0s0.52917-0.79375 0.52917-2.1167c0-1.3229-0.26458-5.2917-0.26458-5.2917" fill="#ff0"/>
  </g>
  <ellipse transform="matrix(.9891 -.14728 .22303 .97481 0 0)" cx="56.074" cy="-141.24" rx="4.6038" ry="1.4494" fill="#ff0" stroke="#1a1a1a" stroke-width=".26498"/>
  <path d="m27.781-145.79c1e-6 0.52917-1.5875 0.79376-3.4659 1.2701-1.9297 0.48937-3.7808 0.26117-3.9424-0.21179-0.16168-0.47296 1.3918-1.1826 3.357-1.501 1.9651-0.31835 3.8897-0.0303 4.0514 0.44261z" fill="#333"/>
  <path d="m60.983-139.31s-0.05387 3.0224-1.3499 3.9822c-4.5808 3.7654-10.008 4.8543-12.811 7.7423-1.495 1.6439-1.2026 4.2234-1.0349 4.4384 1.1806 0.79324 1.0873 2.7286 3.5926 3.4406 0.8309-0.52583 2.0123-2.1418 1.6787-4.0694 7.5959-0.19059 15.866-5.3472 18.838-9.322" fill="#1a1a1a" stroke="#000" stroke-width=".26458px"/>
  <path d="m46.468-127.13c-1.0852 1.6254-0.83384 3.7807-0.6811 3.9765 1.1806 0.79325 1.0872 2.7287 3.5925 3.4406 0.8309-0.52581 2.0121-2.1414 1.6785-4.069l-1.9477 0.33282 0.04703-1.0754h-1.6371l0.2806-1.3565h-1.45z" fill="#e6e6e6" stroke="#1a1a1a" stroke-width=".26458px"/>
  <g transform="translate(3.7247e-8 -1153.6)">
   <path d="m2.9524 1015 33.957-0.094 12.816 23.901-34.705-1.45z" fill="#333"/>
   <path d="m2.9524 1015 1.0758-1.4499 34.19-0.1403-1.3096 1.4967z" fill="#4d4d4d"/>
   <path d="m38.219 1013.4 12.254 23.292 12.582-7.7642 0.0935 1.9177-13.424 7.9513-12.816-23.901z" fill="#1a1a1a"/>
   <path d="m17.467 1023.3 9.5281 0.066 2.1136 5.6225-9.2004-0.1323z" fill="#ff0"/>
   <g transform="matrix(.44007 0 .16067 .38714 -176.23 647.82)" stroke-width=".26458" aria-label="DEV">
    <path d="m89.358 981.34h1.3123c1.8521 0 2.921-1.4393 2.921-3.9158 0-2.4659-1.0689-3.8629-2.9633-3.8629h-1.27zm0.98425-0.81492v-6.1489h0.41275c1.2065 0 1.8203 1.0689 1.8203 3.048 0 1.9685-0.61383 3.1009-1.8203 3.1009z"/>
    <path d="m94.903 981.34h3.81v-0.83608h-2.8258v-2.8258h2.2754v-0.83609h-2.2754v-2.4342h2.7305v-0.84667h-3.7148z"/>
    <path d="m101.32 981.34h1.2277l1.7462-7.7788h-0.98425l-0.8255 4.2228c-0.17991 0.92075-0.30691 1.6828-0.508 2.6035h-0.0529c-0.1905-0.92075-0.32809-1.6828-0.508-2.6035l-0.8255-4.2228h-1.016z"/>
   </g>
  </g>
 </g>
 <g transform="translate(0,285.75)">
  <path d="m63.055-219.93-16.557 0.3274 3.9756 7.4368z" fill="#333"/>
  <path d="m49.958-212.96 8.8867-5.2853-11.599 0.1871z" fill="#666"/>
  <path d="m60.983-234.56s-0.05387 3.0224-1.3499 3.9822c-4.5808 3.7654-10.008 4.8543-12.811 7.7423-1.495 1.6439-1.2026 4.2234-1.0349 4.4384 1.1806 0.79324 1.0873 2.7286 3.5926 3.4406 0.8309-0.52583 2.0123-2.1417 1.6787-4.0694 7.5959-0.19059 15.866-5.3472 18.838-9.322" fill="#1a1a1a" stroke="#000" stroke-width=".26458px"/>
  <path d="m46.468-222.38c-1.0852 1.6254-0.83384 3.7807-0.6811 3.9765 1.1806 0.79325 1.0872 2.7287 3.5925 3.4406 0.8309-0.52581 2.0121-2.1414 1.6785-4.069l-1.9477 0.33282 0.04703-1.0754h-1.6371l0.2806-1.3565h-1.45z" fill="#e6e6e6" stroke="#1a1a1a" stroke-width=".26458px"/>
  <g transform="translate(3.7247e-8 -1248.8)">
   <path d="m2.9524 1015 33.957-0.094 12.816 23.901-34.705-1.45z" fill="#333"/>
   <path d="m2.9524 1015 1.0758-1.4499 34.19-0.1403-1.3096 1.4967z" fill="#4d4d4d"/>
   <path d="m38.219 1013.4 12.254 23.292 12.582-7.7642 0.0935 1.9177-13.424 7.9513-12.816-23.901z" fill="#1a1a1a"/>
   <path d="m17.467 1023.3 9.5281 0.066 2.1136 5.6225-9.2004-0.1323z" fill="#ff0"/>
   <g transform="matrix(.44007 0 .16067 .38714 -176.23 647.82)" stroke-width=".26458" aria-label="DEV">
    <path d="m89.358 981.34h1.3123c1.8521 0 2.921-1.4393 2.921-3.9158 0-2.4659-1.0689-3.8629-2.9633-3.8629h-1.27zm0.98425-0.81492v-6.1489h0.41275c1.2065 0 1.8203 1.0689 1.8203 3.048 0 1.9685-0.61383 3.1009-1.8203 3.1009z"/>
    <path d="m94.903 981.34h3.81v-0.83608h-2.8258v-2.8258h2.2754v-0.83609h-2.2754v-2.4342h2.7305v-0.84667h-3.7148z"/>
    <path d="m101.32 981.34h1.2277l1.7462-7.7788h-0.98425l-0.8255 4.2228c-0.17991 0.92075-0.30691 1.6828-0.508 2.6035h-0.0529c-0.1905-0.92075-0.32809-1.6828-0.508-2.6035l-0.8255-4.2228h-1.016z"/>
   </g>
  </g>
 </g>
</svg>
