<?xml version="1.0" encoding="UTF-8"?>
<!-- Created with Inkscape (http://www.inkscape.org/) -->
<svg width="320" height="360" enable-background="new" version="1.1" viewBox="0 0 84.667 95.25" xmlns="http://www.w3.org/2000/svg" xmlns:cc="http://creativecommons.org/ns#" xmlns:dc="http://purl.org/dc/elements/1.1/" xmlns:rdf="http://www.w3.org/1999/02/22-rdf-syntax-ns#" xmlns:xlink="http://www.w3.org/1999/xlink">
 <defs>
  <linearGradient id="linearGradient12634" x1="44.715" x2="45.743" y1="911.3" y2="880.47" gradientUnits="userSpaceOnUse">
   <stop stop-color="#f2f2f2" offset="0"/>
   <stop stop-color="#f2f2f2" stop-opacity="0" offset="1"/>
  </linearGradient>
  <filter id="filter14343" color-interpolation-filters="sRGB">
   <feGaussianBlur result="fbSourceGraphic" stdDeviation="1.32 1.12"/>
   <feColorMatrix in="fbSourceGraphic" result="fbSourceGraphicAlpha" values="0 0 0 -1 0 0 0 0 -1 0 0 0 0 -1 0 0 0 0 1 0"/>
   <feGaussianBlur in="fbSourceGraphic" result="blur" stdDeviation="1.32 1.12"/>
  </filter>
 </defs>
 <metadata>
  <rdf:RDF>
   <cc:Work rdf:about="">
    <dc:format>image/svg+xml</dc:format>
    <dc:type rdf:resource="http://purl.org/dc/dcmitype/StillImage"/>
    <dc:title/>
   </cc:Work>
  </rdf:RDF>
 </metadata>
 <g transform="translate(0 -857.25)">
  <g fill="#1a1a1a">
   <path d="m30.256 925.63c-2.3644 5.1116-8.2419 8.5627-7.913 15.122 0 0 0.26727 5.3453 7.0158 5.8799 4.627 0.1626 9.998-1.1355 12.428-5.4122-0.49877 9.4063 11.946 7.8515 15.568 6.949 7.5093-2.0121 13.738-11.058 13.738-11.058 6.0078 0.1603 9.0701-0.9284 9.3077-3.9215-0.18121-4.7243-7.1818-3.742-8.3155-3.6853-1.2284 0.756 2.5986-3.8741 2.5986-3.8741z"/>
   <path d="m30.256 925.63c-2.3644 5.1116-8.2419 8.5627-7.913 15.122 0 0 0.26727 5.3453 7.0158 5.8799 4.627 0.1626 9.998-1.1355 12.428-5.4122-0.49877 9.4063 11.946 7.8515 15.568 6.949 7.5093-2.0121 13.738-11.058 13.738-11.058 6.0078 0.1603 9.0701-0.9284 9.3077-3.9215-0.18121-4.7243-7.1818-3.742-8.3155-3.6853-1.2284 0.756 2.5986-3.8741 2.5986-3.8741z" filter="url(#filter14343)" opacity=".7"/>
   <path d="m69.58 880.91c3.673 11.022-4.631 22.901-16.781 26.013-12.15 3.1111-24.336-3.4909-27.218-14.746-2.8821-11.255 3.7061-25.465 17.917-26.614 14.6-1.1806 22.732 5.295 26.082 15.347z"/>
   <path d="m53.073 893.72c-0.86577-6e-3 -1.7427 0.0458-2.6272 0.15762-14.166 1.7906-24.568 7.0365-22.3 18.521-3e-6 4.382 0.70467 9.0339 2.1105 13.229h44.428c0.1997-1.8558 0.30787-4.0888 0.33073-6.8037 1.5946-12.184-8.9548-25.021-21.941-25.104z"/>
   <path d="m26.255 880.27s-4.2988-2.6475-4.9137-9.8274c0 0 12.406 0.24912 13.843-0.33074z"/>
   <path d="m51.152 867.35s-0.83901-0.82665 0.56493-4.6779c0 0 7.1487 3.7162 7.003 6.8461z"/>
  </g>
  <path d="m46.087 898.24c-0.98458 0-2.0173 0.066-3.0996 0.2114-9.3831 1.2643-14.183 9.7719-11.762 22.922 0.27929 1.5168 0.69556 2.9379 1.2227 4.255h28.171c2.1328-3.5455 3.1114-7.7745 2.0205-12.304-2.0074-8.3344-7.0354-15.055-16.553-15.084z" fill="url(#linearGradient12634)"/>
  <path d="m60.989 889.63c0.05375 13.733-1.5159 14.692-10.078 15.989-12.692 1.9215-21.63-2.5363-23.716-10.724-2.663-10.453 2.6159-17.216 12.936-18.221 12.697-1.2366 20.828 5.251 20.858 12.957z" fill="#1a1a1a"/>
  <path d="m26.468 878.42c-1.4841-1.1496-3.0075-2.8791-3.1476-5.9098 0 0 2.79 1.0613 6.9263 0.355 0 0-1.827 1.5595-3.7788 5.5548z" fill="#e6e6e6"/>
  <path d="m50.63 870.51c1.0826-2.2705 1.7737-4.6668 1.7737-4.6668s2.9537 0.59183 4.845 6.0269c0 0-0.97855-0.82446-6.6187-1.36z" fill="#fff"/>
  <path d="m76.713 929.58-0.98288 0.6051 1.1689 0.6548-1.0754 0.9358 1.1224 0.7948-1.2159 1.0759 1.0754 0.7483-0.84181 0.7953 0.84181 0.6547-1.1224 0.7953 0.31936 0.2129c2.7806-0.4851 4.2376-1.636 4.3982-3.6597-0.08881-2.3154-1.8162-3.2585-3.6876-3.6132z" fill="#ececec"/>
  <path d="m16.277 923.72 59.529-0.1023-20.003 13.549-55.806-2.4588z" fill="#e6e6e6"/>
  <path d="m7.8614 939.68 1.1555 8.2723c0.016219 0.8832 1.6345 1.3333 3.5739 1.3333 1.9395 0 3.5067-0.7477 3.5068-1.6309l-0.82476-7.644z" fill="#999"/>
  <path d="m49.055 939.72 0.69143 10.763c-0.04224 1.1405 1.6795 1.8517 3.7801 2.0082 2.1009 0.1517 3.8489-0.6814 3.9088-1.8206l-0.37569-9.9265z" fill="#808080"/>
  <path d="m69.229 930.72 0.0703 9.1058c0.43244 1.2698 2.7032 1.2103 2.7032 1.2103 0.92524-0.03 2.6206-0.4277 2.7301-1.1668l-8e-3 -11.548z" fill="#808080"/>
  <path d="m35.807 898.09s0.70158 1.5702 2.0379 1.4032c1.3364-0.1671 1.2891-1.8542 1.2891-1.8542 0.56423 1.5076 4.0914 2.546 4.7412-1.7039" fill="none" stroke="#1a1a1a" stroke-width=".26458px"/>
  <path d="m39.022 897.39c-0.20939 0.039-0.39803-0.039-0.56146-0.1762-0.17669-0.1478-0.49322-0.4042-0.39202-0.6111 0 0 1.6053-0.33 1.7304-0.2993 0.16426 0.096-0.12826 0.487-0.2937 0.7152-0.12107 0.1669-0.28049 0.3332-0.48317 0.3714z" fill="#f2f2f2"/>
  <g transform="translate(0 -105.83)">
   <path d="m36.197 999.59s-0.57441-1.1356-2.6456-0.79876c-1.2446 0.20245-1.5208 0.73217-1.5208 0.73217s0.11491 0.0263 0.20132 0.0904c0.32926 0.24442 1.1745 0.84433 2.241 0.59333 1.292-0.34579 1.4708-0.56567 1.4708-0.56567z" fill="#f9f9f9" stroke="#1a1a1a" stroke-width=".17281px"/>
   <path d="m33.63 998.79a0.87856 0.76484 63.074 0 0-0.20197 1.088 0.87856 0.76484 63.074 0 0 0.36607 0.38995c0.21343 0.016 0.44026 0 0.67923-0.052 0.0868-0.023 0.15639-0.044 0.23343-0.066a0.87856 0.76484 63.074 0 0 0.0817-0.97074l-7e-3 -0.0131a0.87856 0.76484 63.074 0 0-0.44435-0.42548c-0.21298-3e-3 -0.44789 0.0118-0.70737 0.0499z"/>
   <path transform="rotate(-8.8237)" d="m-119.44 993.32a0.24464 0.23723 0 0 1-0.24363 0.23723 0.24464 0.23723 0 0 1-0.24565-0.23526 0.24464 0.23723 0 0 1 0.24158-0.23919 0.24464 0.23723 0 0 1 0.24766 0.23327" fill="#fff"/>
  </g>
  <g transform="translate(0 -105.83)">
   <path d="m40.88 999.03s0.19841-1.4641 2.5985-1.882c1.4423-0.2511 1.9467 0.225 1.9467 0.225s-0.11606 0.0725-0.18647 0.17571c-0.26827 0.3933-0.96747 1.3727-2.2328 1.5028-1.5487 0.11185-1.8285-0.0613-1.8285-0.0613z" fill="#f9f9f9" stroke="#1a1a1a" stroke-width=".20063px"/>
   <path d="m42.877 997.29c-0.23302 0.0682-0.44049 0.14635-0.6225 0.23257a0.93542 0.81434 80.048 0 0-0.22584 0.84177 0.93542 0.81434 80.048 0 0 0.52586 0.71243c0.13887-6e-3 0.28462-0.0137 0.45183-0.0258 0.10124-0.0104 0.19779-0.0278 0.29184-0.0483a0.93542 0.81434 80.048 0 0 0.33309-0.92757l-3e-3 -0.0154a0.93542 0.81434 80.048 0 0-0.75168-0.76962z"/>
   <path transform="rotate(3.4508)" d="m103.07 994.35a0.23851 0.24552 0 0 1-0.23751 0.24552 0.23851 0.24552 0 0 1-0.2395-0.24348 0.23851 0.24552 0 0 1 0.23553-0.24754 0.23851 0.24552 0 0 1 0.24145 0.24142" fill="#fff"/>
  </g>
  <path transform="rotate(18.12)" d="m316.5 840.26a0.25632 0.13643 0 0 1-0.25525 0.13643 0.25632 0.13643 0 0 1-0.25738-0.13529 0.25632 0.13643 0 0 1 0.25311-0.13755 0.25632 0.13643 0 0 1 0.25948 0.13414" fill="#1a1a1a"/>
  <path transform="rotate(-37.38)" d="m-513.76 736.13a0.19396 0.10323 0 0 1-0.19315 0.10323 0.19396 0.10323 0 0 1-0.19475-0.10237 0.19396 0.10323 0 0 1 0.19153-0.10409 0.19396 0.10323 0 0 1 0.19635 0.10151" fill="#1a1a1a"/>
  <path d="m50.63 870.51c1.0826-2.2705 1.7737-4.6668 1.7737-4.6668s2.9537 0.59183 4.845 6.0269c0 0-0.97855-0.82446-6.6187-1.36z" fill="#e6e6e6"/>
  <g fill="none" stroke="#000" stroke-width=".26458px">
   <path d="m0 857.33"/>
   <path d="m27.252 876.11c-1.0583 0.26459-2.9104-0.52916-3.175-1.5875"/>
   <path d="m27.517 875.59c-2.1167-0.79375-2.3812-2.1167-2.3812-2.1167"/>
   <path d="m52.652 870.29s1.3229-1.0583 0.26458-3.175"/>
   <path d="m53.446 870.56s1.5976-1.2242 1.0583-2.6458"/>
  </g>
  <path d="m-0.002923 934.71 1.6457 4.7328 54.302 2.9467-0.14251-5.2207z" fill="#b3b3b3"/>
  <path d="m55.945 942.39 20.018-14.266-0.15757-4.5045-20.003 13.549z" fill="#808080"/>
  <g fill="none" stroke="#000">
   <path d="m78.052 934.85s1.3229 0.26458 1.8521-0.26459" stroke-width=".26458px"/>
   <path d="m78.317 933.53s1.5875 0.26459 1.8521-0.26458" stroke-width=".26458px"/>
   <path d="m78.317 932.21s1.3607 0.26458 1.5875-0.26456" stroke-width=".24495px"/>
  </g>
 </g>
</svg>
